G04*
G04 #@! TF.GenerationSoftware,Altium Limited,Altium Designer,24.9.1 (31)*
G04*
G04 Layer_Color=128*
%FSLAX44Y44*%
%MOMM*%
G71*
G04*
G04 #@! TF.SameCoordinates,71836318-DDD3-4581-AD3B-DFE8F42F7339*
G04*
G04*
G04 #@! TF.FilePolarity,Positive*
G04*
G01*
G75*
G04:AMPARAMS|DCode=23|XSize=0.95mm|YSize=0.85mm|CornerRadius=0.2125mm|HoleSize=0mm|Usage=FLASHONLY|Rotation=90.000|XOffset=0mm|YOffset=0mm|HoleType=Round|Shape=RoundedRectangle|*
%AMROUNDEDRECTD23*
21,1,0.9500,0.4250,0,0,90.0*
21,1,0.5250,0.8500,0,0,90.0*
1,1,0.4250,0.2125,0.2625*
1,1,0.4250,0.2125,-0.2625*
1,1,0.4250,-0.2125,-0.2625*
1,1,0.4250,-0.2125,0.2625*
%
%ADD23ROUNDEDRECTD23*%
G04:AMPARAMS|DCode=24|XSize=1.1mm|YSize=1mm|CornerRadius=0.25mm|HoleSize=0mm|Usage=FLASHONLY|Rotation=270.000|XOffset=0mm|YOffset=0mm|HoleType=Round|Shape=RoundedRectangle|*
%AMROUNDEDRECTD24*
21,1,1.1000,0.5000,0,0,270.0*
21,1,0.6000,1.0000,0,0,270.0*
1,1,0.5000,-0.2500,-0.3000*
1,1,0.5000,-0.2500,0.3000*
1,1,0.5000,0.2500,0.3000*
1,1,0.5000,0.2500,-0.3000*
%
%ADD24ROUNDEDRECTD24*%
G04:AMPARAMS|DCode=25|XSize=0.65mm|YSize=0.6mm|CornerRadius=0.15mm|HoleSize=0mm|Usage=FLASHONLY|Rotation=180.000|XOffset=0mm|YOffset=0mm|HoleType=Round|Shape=RoundedRectangle|*
%AMROUNDEDRECTD25*
21,1,0.6500,0.3000,0,0,180.0*
21,1,0.3500,0.6000,0,0,180.0*
1,1,0.3000,-0.1750,0.1500*
1,1,0.3000,0.1750,0.1500*
1,1,0.3000,0.1750,-0.1500*
1,1,0.3000,-0.1750,-0.1500*
%
%ADD25ROUNDEDRECTD25*%
G04:AMPARAMS|DCode=26|XSize=0.65mm|YSize=0.6mm|CornerRadius=0.15mm|HoleSize=0mm|Usage=FLASHONLY|Rotation=270.000|XOffset=0mm|YOffset=0mm|HoleType=Round|Shape=RoundedRectangle|*
%AMROUNDEDRECTD26*
21,1,0.6500,0.3000,0,0,270.0*
21,1,0.3500,0.6000,0,0,270.0*
1,1,0.3000,-0.1500,-0.1750*
1,1,0.3000,-0.1500,0.1750*
1,1,0.3000,0.1500,0.1750*
1,1,0.3000,0.1500,-0.1750*
%
%ADD26ROUNDEDRECTD26*%
%ADD27R,0.9500X1.2000*%
G04:AMPARAMS|DCode=28|XSize=1.64mm|YSize=0.59mm|CornerRadius=0.1475mm|HoleSize=0mm|Usage=FLASHONLY|Rotation=0.000|XOffset=0mm|YOffset=0mm|HoleType=Round|Shape=RoundedRectangle|*
%AMROUNDEDRECTD28*
21,1,1.6400,0.2950,0,0,0.0*
21,1,1.3450,0.5900,0,0,0.0*
1,1,0.2950,0.6725,-0.1475*
1,1,0.2950,-0.6725,-0.1475*
1,1,0.2950,-0.6725,0.1475*
1,1,0.2950,0.6725,0.1475*
%
%ADD28ROUNDEDRECTD28*%
G04:AMPARAMS|DCode=37|XSize=0.95mm|YSize=0.85mm|CornerRadius=0.2125mm|HoleSize=0mm|Usage=FLASHONLY|Rotation=180.000|XOffset=0mm|YOffset=0mm|HoleType=Round|Shape=RoundedRectangle|*
%AMROUNDEDRECTD37*
21,1,0.9500,0.4250,0,0,180.0*
21,1,0.5250,0.8500,0,0,180.0*
1,1,0.4250,-0.2625,0.2125*
1,1,0.4250,0.2625,0.2125*
1,1,0.4250,0.2625,-0.2125*
1,1,0.4250,-0.2625,-0.2125*
%
%ADD37ROUNDEDRECTD37*%
G04:AMPARAMS|DCode=52|XSize=1.1mm|YSize=1.3mm|CornerRadius=0.25mm|HoleSize=0mm|Usage=FLASHONLY|Rotation=180.000|XOffset=0mm|YOffset=0mm|HoleType=Round|Shape=RoundedRectangle|*
%AMROUNDEDRECTD52*
21,1,1.1000,0.8000,0,0,180.0*
21,1,0.6000,1.3000,0,0,180.0*
1,1,0.5000,-0.3000,0.4000*
1,1,0.5000,0.3000,0.4000*
1,1,0.5000,0.3000,-0.4000*
1,1,0.5000,-0.3000,-0.4000*
%
%ADD52ROUNDEDRECTD52*%
G04:AMPARAMS|DCode=143|XSize=1.6002mm|YSize=0.3556mm|CornerRadius=0.0889mm|HoleSize=0mm|Usage=FLASHONLY|Rotation=270.000|XOffset=0mm|YOffset=0mm|HoleType=Round|Shape=RoundedRectangle|*
%AMROUNDEDRECTD143*
21,1,1.6002,0.1778,0,0,270.0*
21,1,1.4224,0.3556,0,0,270.0*
1,1,0.1778,-0.0889,-0.7112*
1,1,0.1778,-0.0889,0.7112*
1,1,0.1778,0.0889,0.7112*
1,1,0.1778,0.0889,-0.7112*
%
%ADD143ROUNDEDRECTD143*%
G04:AMPARAMS|DCode=144|XSize=1.64mm|YSize=0.59mm|CornerRadius=0.1475mm|HoleSize=0mm|Usage=FLASHONLY|Rotation=270.000|XOffset=0mm|YOffset=0mm|HoleType=Round|Shape=RoundedRectangle|*
%AMROUNDEDRECTD144*
21,1,1.6400,0.2950,0,0,270.0*
21,1,1.3450,0.5900,0,0,270.0*
1,1,0.2950,-0.1475,-0.6725*
1,1,0.2950,-0.1475,0.6725*
1,1,0.2950,0.1475,0.6725*
1,1,0.2950,0.1475,-0.6725*
%
%ADD144ROUNDEDRECTD144*%
G04:AMPARAMS|DCode=145|XSize=1.1mm|YSize=1mm|CornerRadius=0.25mm|HoleSize=0mm|Usage=FLASHONLY|Rotation=0.000|XOffset=0mm|YOffset=0mm|HoleType=Round|Shape=RoundedRectangle|*
%AMROUNDEDRECTD145*
21,1,1.1000,0.5000,0,0,0.0*
21,1,0.6000,1.0000,0,0,0.0*
1,1,0.5000,0.3000,-0.2500*
1,1,0.5000,-0.3000,-0.2500*
1,1,0.5000,-0.3000,0.2500*
1,1,0.5000,0.3000,0.2500*
%
%ADD145ROUNDEDRECTD145*%
%ADD146R,10.4500X8.1000*%
%ADD147R,1.0000X3.0000*%
%ADD148C,0.4900*%
G04:AMPARAMS|DCode=149|XSize=0.8mm|YSize=0.26mm|CornerRadius=0.065mm|HoleSize=0mm|Usage=FLASHONLY|Rotation=180.000|XOffset=0mm|YOffset=0mm|HoleType=Round|Shape=RoundedRectangle|*
%AMROUNDEDRECTD149*
21,1,0.8000,0.1300,0,0,180.0*
21,1,0.6700,0.2600,0,0,180.0*
1,1,0.1300,-0.3350,0.0650*
1,1,0.1300,0.3350,0.0650*
1,1,0.1300,0.3350,-0.0650*
1,1,0.1300,-0.3350,-0.0650*
%
%ADD149ROUNDEDRECTD149*%
G04:AMPARAMS|DCode=150|XSize=0.26mm|YSize=0.8mm|CornerRadius=0.065mm|HoleSize=0mm|Usage=FLASHONLY|Rotation=180.000|XOffset=0mm|YOffset=0mm|HoleType=Round|Shape=RoundedRectangle|*
%AMROUNDEDRECTD150*
21,1,0.2600,0.6700,0,0,180.0*
21,1,0.1300,0.8000,0,0,180.0*
1,1,0.1300,-0.0650,0.3350*
1,1,0.1300,0.0650,0.3350*
1,1,0.1300,0.0650,-0.3350*
1,1,0.1300,-0.0650,-0.3350*
%
%ADD150ROUNDEDRECTD150*%
%ADD152R,0.8000X0.5000*%
G04:AMPARAMS|DCode=153|XSize=1.45mm|YSize=0.59mm|CornerRadius=0.0738mm|HoleSize=0mm|Usage=FLASHONLY|Rotation=90.000|XOffset=0mm|YOffset=0mm|HoleType=Round|Shape=RoundedRectangle|*
%AMROUNDEDRECTD153*
21,1,1.4500,0.4425,0,0,90.0*
21,1,1.3025,0.5900,0,0,90.0*
1,1,0.1475,0.2213,0.6513*
1,1,0.1475,0.2213,-0.6513*
1,1,0.1475,-0.2213,-0.6513*
1,1,0.1475,-0.2213,0.6513*
%
%ADD153ROUNDEDRECTD153*%
G04:AMPARAMS|DCode=154|XSize=0.35mm|YSize=1.35mm|CornerRadius=0.0875mm|HoleSize=0mm|Usage=FLASHONLY|Rotation=0.000|XOffset=0mm|YOffset=0mm|HoleType=Round|Shape=RoundedRectangle|*
%AMROUNDEDRECTD154*
21,1,0.3500,1.1750,0,0,0.0*
21,1,0.1750,1.3500,0,0,0.0*
1,1,0.1750,0.0875,-0.5875*
1,1,0.1750,-0.0875,-0.5875*
1,1,0.1750,-0.0875,0.5875*
1,1,0.1750,0.0875,0.5875*
%
%ADD154ROUNDEDRECTD154*%
G04:AMPARAMS|DCode=155|XSize=1.35mm|YSize=0.35mm|CornerRadius=0.0875mm|HoleSize=0mm|Usage=FLASHONLY|Rotation=0.000|XOffset=0mm|YOffset=0mm|HoleType=Round|Shape=RoundedRectangle|*
%AMROUNDEDRECTD155*
21,1,1.3500,0.1750,0,0,0.0*
21,1,1.1750,0.3500,0,0,0.0*
1,1,0.1750,0.5875,-0.0875*
1,1,0.1750,-0.5875,-0.0875*
1,1,0.1750,-0.5875,0.0875*
1,1,0.1750,0.5875,0.0875*
%
%ADD155ROUNDEDRECTD155*%
%ADD156R,1.1000X1.3000*%
G04:AMPARAMS|DCode=157|XSize=1.1mm|YSize=1.3mm|CornerRadius=0.25mm|HoleSize=0mm|Usage=FLASHONLY|Rotation=270.000|XOffset=0mm|YOffset=0mm|HoleType=Round|Shape=RoundedRectangle|*
%AMROUNDEDRECTD157*
21,1,1.1000,0.8000,0,0,270.0*
21,1,0.6000,1.3000,0,0,270.0*
1,1,0.5000,-0.4000,-0.3000*
1,1,0.5000,-0.4000,0.3000*
1,1,0.5000,0.4000,0.3000*
1,1,0.5000,0.4000,-0.3000*
%
%ADD157ROUNDEDRECTD157*%
%ADD158R,3.0000X2.1000*%
%ADD159R,1.6000X0.8000*%
G04:AMPARAMS|DCode=160|XSize=1.32mm|YSize=0.6mm|CornerRadius=0.075mm|HoleSize=0mm|Usage=FLASHONLY|Rotation=270.000|XOffset=0mm|YOffset=0mm|HoleType=Round|Shape=RoundedRectangle|*
%AMROUNDEDRECTD160*
21,1,1.3200,0.4500,0,0,270.0*
21,1,1.1700,0.6000,0,0,270.0*
1,1,0.1500,-0.2250,-0.5850*
1,1,0.1500,-0.2250,0.5850*
1,1,0.1500,0.2250,0.5850*
1,1,0.1500,0.2250,-0.5850*
%
%ADD160ROUNDEDRECTD160*%
%ADD187R,1.6128X1.6128*%
D23*
X597750Y221000D02*
D03*
X582250D02*
D03*
X127000Y584000D02*
D03*
X111500D02*
D03*
X603250Y519000D02*
D03*
X618750D02*
D03*
X687750Y462000D02*
D03*
X672250D02*
D03*
X814750Y460000D02*
D03*
X799250D02*
D03*
X443250Y670000D02*
D03*
X458750D02*
D03*
X80250Y736000D02*
D03*
X95750D02*
D03*
X141750Y779000D02*
D03*
X126250D02*
D03*
X141750Y751000D02*
D03*
X126250D02*
D03*
X141750Y765000D02*
D03*
X126250D02*
D03*
X93250Y801500D02*
D03*
X108750D02*
D03*
X451250Y205000D02*
D03*
X466750D02*
D03*
X451250Y191000D02*
D03*
X466750D02*
D03*
X161000Y584000D02*
D03*
X176500D02*
D03*
X162250Y454000D02*
D03*
X177750D02*
D03*
X112250D02*
D03*
X127750D02*
D03*
X666250Y704000D02*
D03*
X681750D02*
D03*
X666250Y690000D02*
D03*
X681750D02*
D03*
X228750Y230000D02*
D03*
X213250D02*
D03*
X225750Y139000D02*
D03*
X210250D02*
D03*
X228750Y246000D02*
D03*
X213250D02*
D03*
X225750Y124000D02*
D03*
X210250D02*
D03*
X403750Y222000D02*
D03*
X388250D02*
D03*
X403750Y131000D02*
D03*
X388250D02*
D03*
X403750Y236000D02*
D03*
X388250D02*
D03*
X403750Y117000D02*
D03*
X388250D02*
D03*
X597750Y235000D02*
D03*
X582250D02*
D03*
D24*
X551796Y629814D02*
D03*
Y612814D02*
D03*
X704990Y670994D02*
D03*
Y687995D02*
D03*
X715480Y763494D02*
D03*
Y780495D02*
D03*
X511000Y852500D02*
D03*
Y869500D02*
D03*
X455000D02*
D03*
Y852500D02*
D03*
D25*
X760500Y777000D02*
D03*
X750000D02*
D03*
X760500Y786000D02*
D03*
X750000D02*
D03*
X107750Y273000D02*
D03*
X118250D02*
D03*
Y264000D02*
D03*
X107750D02*
D03*
Y255000D02*
D03*
X118250D02*
D03*
X118250Y321000D02*
D03*
X107750D02*
D03*
Y312000D02*
D03*
X118250D02*
D03*
Y303000D02*
D03*
X107750D02*
D03*
X127750Y273000D02*
D03*
X138250D02*
D03*
Y264000D02*
D03*
X127750D02*
D03*
Y255000D02*
D03*
X138250D02*
D03*
X138250Y321000D02*
D03*
X127750D02*
D03*
Y312000D02*
D03*
X138250D02*
D03*
Y303000D02*
D03*
X127750D02*
D03*
X251000Y573000D02*
D03*
X261500D02*
D03*
X277000Y423000D02*
D03*
X266500D02*
D03*
X287500D02*
D03*
X298000D02*
D03*
X621796Y474000D02*
D03*
X632296D02*
D03*
X339250Y470000D02*
D03*
X328750D02*
D03*
Y446000D02*
D03*
X339250D02*
D03*
X308750Y419000D02*
D03*
X319250D02*
D03*
X624296Y403000D02*
D03*
X613796D02*
D03*
X621546Y537000D02*
D03*
X632046D02*
D03*
X515250Y619000D02*
D03*
X504750D02*
D03*
X308750Y549000D02*
D03*
X319250D02*
D03*
Y540000D02*
D03*
X308750D02*
D03*
X612296Y474000D02*
D03*
X601796D02*
D03*
X339250Y479000D02*
D03*
X328750D02*
D03*
Y455000D02*
D03*
X339250D02*
D03*
Y419000D02*
D03*
X328750D02*
D03*
X593796Y403000D02*
D03*
X604296D02*
D03*
X612046Y537000D02*
D03*
X601546D02*
D03*
X515250Y610000D02*
D03*
X504750D02*
D03*
X339250Y549000D02*
D03*
X328750D02*
D03*
Y540000D02*
D03*
X339250D02*
D03*
X308750Y428000D02*
D03*
X319250D02*
D03*
X621546Y484000D02*
D03*
X632046D02*
D03*
X624250Y416000D02*
D03*
X613750D02*
D03*
X328750Y428000D02*
D03*
X339250D02*
D03*
X601546Y484000D02*
D03*
X612046D02*
D03*
X604250Y416000D02*
D03*
X593750D02*
D03*
X379250Y736000D02*
D03*
X368750D02*
D03*
X281250Y736000D02*
D03*
X270750D02*
D03*
X368750Y727000D02*
D03*
X379250D02*
D03*
X270750Y727000D02*
D03*
X281250D02*
D03*
X271750Y680000D02*
D03*
X282250D02*
D03*
X368750D02*
D03*
X379250D02*
D03*
X282250Y671000D02*
D03*
X271750D02*
D03*
X379250Y671000D02*
D03*
X368750D02*
D03*
X40750Y690000D02*
D03*
X51250D02*
D03*
X40750Y681000D02*
D03*
X51250D02*
D03*
X134750Y688000D02*
D03*
X145250D02*
D03*
X134750Y679000D02*
D03*
X145250D02*
D03*
X95250Y569000D02*
D03*
X84750D02*
D03*
X40000Y672000D02*
D03*
X50500D02*
D03*
X40000Y663000D02*
D03*
X50500D02*
D03*
X281750Y222000D02*
D03*
X292250D02*
D03*
X281750Y134000D02*
D03*
X292250D02*
D03*
X548250Y127000D02*
D03*
X537750D02*
D03*
Y217000D02*
D03*
X548250D02*
D03*
X351750Y126000D02*
D03*
X362250D02*
D03*
X736990Y688494D02*
D03*
X726490D02*
D03*
Y679494D02*
D03*
X736990D02*
D03*
X726740Y699494D02*
D03*
X737240D02*
D03*
X697750Y716000D02*
D03*
X708250D02*
D03*
Y725000D02*
D03*
X697750D02*
D03*
X756990Y688494D02*
D03*
X746490D02*
D03*
Y679494D02*
D03*
X756990D02*
D03*
X736750Y712000D02*
D03*
X747250D02*
D03*
X677750Y716000D02*
D03*
X688250D02*
D03*
Y725000D02*
D03*
X677750D02*
D03*
X739250Y760000D02*
D03*
X728750D02*
D03*
X149250Y591000D02*
D03*
X138750D02*
D03*
Y581000D02*
D03*
X149250D02*
D03*
X139750Y457000D02*
D03*
X150250D02*
D03*
X139750Y448000D02*
D03*
X150250D02*
D03*
X135250Y800500D02*
D03*
X124750D02*
D03*
X135250Y791000D02*
D03*
X124750D02*
D03*
X501750Y669797D02*
D03*
X512250D02*
D03*
X532250D02*
D03*
X521750D02*
D03*
X875250Y482000D02*
D03*
X864750D02*
D03*
X875250Y491000D02*
D03*
X864750D02*
D03*
X749250Y478000D02*
D03*
X738750D02*
D03*
X749250Y487000D02*
D03*
X738750D02*
D03*
D26*
X285000Y560750D02*
D03*
Y571250D02*
D03*
Y551250D02*
D03*
Y540750D02*
D03*
X233000Y541750D02*
D03*
Y552250D02*
D03*
X377000Y331250D02*
D03*
Y320750D02*
D03*
X467000Y352250D02*
D03*
Y341750D02*
D03*
X510000Y332250D02*
D03*
Y321750D02*
D03*
X407796Y640564D02*
D03*
Y630064D02*
D03*
X376796Y340750D02*
D03*
Y351250D02*
D03*
X458796Y352250D02*
D03*
Y341750D02*
D03*
X510000Y341750D02*
D03*
Y352250D02*
D03*
X407796Y610064D02*
D03*
Y620564D02*
D03*
X563796Y630064D02*
D03*
Y640564D02*
D03*
X532796Y640250D02*
D03*
Y629750D02*
D03*
X400796Y331250D02*
D03*
Y320750D02*
D03*
X563796Y610064D02*
D03*
Y620564D02*
D03*
X532796Y620250D02*
D03*
Y609750D02*
D03*
X400796Y351000D02*
D03*
Y340500D02*
D03*
X244000Y653750D02*
D03*
Y664250D02*
D03*
X189000Y664250D02*
D03*
Y653750D02*
D03*
X235000Y664250D02*
D03*
Y653750D02*
D03*
X180000Y653750D02*
D03*
Y664250D02*
D03*
X95000Y578750D02*
D03*
Y589250D02*
D03*
X281000Y200750D02*
D03*
Y211250D02*
D03*
Y155250D02*
D03*
Y144750D02*
D03*
X537000Y149250D02*
D03*
Y138750D02*
D03*
Y206250D02*
D03*
Y195750D02*
D03*
X368000Y220500D02*
D03*
Y231000D02*
D03*
X351000Y147250D02*
D03*
Y136750D02*
D03*
X359000Y231000D02*
D03*
Y220500D02*
D03*
X179000Y129750D02*
D03*
Y140250D02*
D03*
X191000Y229750D02*
D03*
Y240250D02*
D03*
X188000Y140250D02*
D03*
Y129750D02*
D03*
X182000Y240250D02*
D03*
Y229750D02*
D03*
X692990Y688494D02*
D03*
Y698995D02*
D03*
X716990Y688494D02*
D03*
Y698995D02*
D03*
X717990Y708995D02*
D03*
Y719494D02*
D03*
X692990Y668494D02*
D03*
Y678995D02*
D03*
X716990Y668494D02*
D03*
Y678995D02*
D03*
X717990Y728995D02*
D03*
Y739494D02*
D03*
X726990Y719494D02*
D03*
Y708995D02*
D03*
Y728995D02*
D03*
Y739494D02*
D03*
X703480Y781495D02*
D03*
Y770994D02*
D03*
Y750994D02*
D03*
Y761495D02*
D03*
X478000Y188750D02*
D03*
Y199250D02*
D03*
X487000Y188750D02*
D03*
Y199250D02*
D03*
X549796Y878250D02*
D03*
Y867750D02*
D03*
X540796D02*
D03*
Y878250D02*
D03*
X531796D02*
D03*
Y867750D02*
D03*
X522796D02*
D03*
Y878250D02*
D03*
X494796D02*
D03*
Y867750D02*
D03*
X485796D02*
D03*
Y878250D02*
D03*
X476796D02*
D03*
Y867750D02*
D03*
X467796D02*
D03*
Y878250D02*
D03*
X549796Y858250D02*
D03*
Y847750D02*
D03*
X540796D02*
D03*
Y858250D02*
D03*
X531796D02*
D03*
Y847750D02*
D03*
X522796D02*
D03*
Y858250D02*
D03*
X494796D02*
D03*
Y847750D02*
D03*
X485796D02*
D03*
Y858250D02*
D03*
X476796D02*
D03*
Y847750D02*
D03*
X467796D02*
D03*
Y858250D02*
D03*
X879000Y774000D02*
D03*
Y784500D02*
D03*
Y804500D02*
D03*
Y794000D02*
D03*
D27*
X278000Y438000D02*
D03*
Y460000D02*
D03*
X295500D02*
D03*
Y438000D02*
D03*
D28*
X171350Y566050D02*
D03*
Y553350D02*
D03*
Y540650D02*
D03*
Y527950D02*
D03*
X118650D02*
D03*
Y540650D02*
D03*
Y553350D02*
D03*
Y566050D02*
D03*
X118650Y469950D02*
D03*
Y482650D02*
D03*
Y495350D02*
D03*
Y508050D02*
D03*
X171350D02*
D03*
Y495350D02*
D03*
Y482650D02*
D03*
Y469950D02*
D03*
X66650Y680950D02*
D03*
Y693650D02*
D03*
Y706350D02*
D03*
Y719050D02*
D03*
X119350D02*
D03*
Y706350D02*
D03*
Y693650D02*
D03*
Y680950D02*
D03*
X298650Y727950D02*
D03*
Y740650D02*
D03*
Y753350D02*
D03*
Y766050D02*
D03*
X351350D02*
D03*
Y753350D02*
D03*
Y740650D02*
D03*
Y727950D02*
D03*
X184650Y677950D02*
D03*
Y690650D02*
D03*
Y703350D02*
D03*
Y716050D02*
D03*
X237350D02*
D03*
Y703350D02*
D03*
Y690650D02*
D03*
Y677950D02*
D03*
X298650Y670950D02*
D03*
Y683650D02*
D03*
Y696350D02*
D03*
Y709050D02*
D03*
X351350D02*
D03*
Y696350D02*
D03*
Y683650D02*
D03*
Y670950D02*
D03*
D37*
X251000Y352250D02*
D03*
Y367750D02*
D03*
X223000Y373250D02*
D03*
Y388750D02*
D03*
X237000Y373250D02*
D03*
Y388750D02*
D03*
X76000Y344750D02*
D03*
Y329250D02*
D03*
X311000Y454750D02*
D03*
Y439250D02*
D03*
X262750Y437250D02*
D03*
Y452750D02*
D03*
X76000Y109250D02*
D03*
Y124750D02*
D03*
X76000Y406750D02*
D03*
Y391250D02*
D03*
X167000Y290750D02*
D03*
Y275250D02*
D03*
X76000Y180750D02*
D03*
Y165250D02*
D03*
Y213750D02*
D03*
Y198250D02*
D03*
X236000Y348750D02*
D03*
Y333250D02*
D03*
X76000Y312750D02*
D03*
Y297250D02*
D03*
X167000Y322750D02*
D03*
Y307250D02*
D03*
X76000Y231250D02*
D03*
Y246750D02*
D03*
Y264250D02*
D03*
Y279750D02*
D03*
X297000Y557750D02*
D03*
Y542250D02*
D03*
X662000Y524750D02*
D03*
Y509250D02*
D03*
X787000Y527750D02*
D03*
Y512250D02*
D03*
X222000Y333250D02*
D03*
Y348750D02*
D03*
X484000Y210250D02*
D03*
Y225750D02*
D03*
Y238250D02*
D03*
Y253750D02*
D03*
X738990Y722745D02*
D03*
Y738244D02*
D03*
X691000Y771750D02*
D03*
Y756250D02*
D03*
X698990Y651245D02*
D03*
Y635745D02*
D03*
X683990Y651245D02*
D03*
Y635745D02*
D03*
X76000Y424250D02*
D03*
Y439750D02*
D03*
X101000Y631250D02*
D03*
Y646750D02*
D03*
X46000Y571750D02*
D03*
Y556250D02*
D03*
X278000Y778750D02*
D03*
Y763250D02*
D03*
X262000Y778750D02*
D03*
Y763250D02*
D03*
X357000Y354750D02*
D03*
Y339250D02*
D03*
X388796Y349750D02*
D03*
Y334250D02*
D03*
D52*
X875000Y826750D02*
D03*
Y843250D02*
D03*
D143*
X549775Y144457D02*
D03*
X556125D02*
D03*
X562475D02*
D03*
X568825D02*
D03*
X575175D02*
D03*
X581525D02*
D03*
X587875D02*
D03*
X594225D02*
D03*
Y197543D02*
D03*
X587875D02*
D03*
X581525D02*
D03*
X575175D02*
D03*
X568825D02*
D03*
X562475D02*
D03*
X556125D02*
D03*
X549775D02*
D03*
X84225Y590457D02*
D03*
X77875D02*
D03*
X71525D02*
D03*
X65175D02*
D03*
X58825D02*
D03*
X52475D02*
D03*
X46125D02*
D03*
X39775D02*
D03*
Y643543D02*
D03*
X46125D02*
D03*
X52475D02*
D03*
X58825D02*
D03*
X65175D02*
D03*
X71525D02*
D03*
X77875D02*
D03*
X84225D02*
D03*
D144*
X294950Y151650D02*
D03*
X307650D02*
D03*
X320350D02*
D03*
X333050D02*
D03*
Y204350D02*
D03*
X320350D02*
D03*
X307650D02*
D03*
X294950D02*
D03*
X184950Y211350D02*
D03*
X197650D02*
D03*
X210350D02*
D03*
X223050D02*
D03*
Y158650D02*
D03*
X210350D02*
D03*
X197650D02*
D03*
X184950D02*
D03*
X362950Y203350D02*
D03*
X375650D02*
D03*
X388350D02*
D03*
X401050D02*
D03*
Y150650D02*
D03*
X388350D02*
D03*
X375650D02*
D03*
X362950D02*
D03*
D145*
X604296Y496000D02*
D03*
X621296D02*
D03*
X697500Y737000D02*
D03*
X680500D02*
D03*
X528500Y657796D02*
D03*
X511500D02*
D03*
D146*
X829000Y698500D02*
D03*
D147*
X854400Y793000D02*
D03*
X829000D02*
D03*
X803600D02*
D03*
D148*
X745000Y250000D02*
D03*
X755000D02*
D03*
X825000D02*
D03*
X835000D02*
D03*
X745000Y260000D02*
D03*
X835000D02*
D03*
X755000Y280000D02*
D03*
X765000D02*
D03*
X775000D02*
D03*
X785000D02*
D03*
X795000D02*
D03*
X805000D02*
D03*
X815000D02*
D03*
X825000D02*
D03*
X755000Y290000D02*
D03*
X765000D02*
D03*
X775000D02*
D03*
X785000D02*
D03*
X795000D02*
D03*
X805000D02*
D03*
X815000D02*
D03*
X825000D02*
D03*
X755000Y300000D02*
D03*
X765000D02*
D03*
X775000D02*
D03*
X785000D02*
D03*
X795000D02*
D03*
X805000D02*
D03*
X815000D02*
D03*
X825000D02*
D03*
X755000Y310000D02*
D03*
X765000D02*
D03*
X775000D02*
D03*
X785000D02*
D03*
X795000D02*
D03*
X805000D02*
D03*
X815000D02*
D03*
X825000D02*
D03*
X755000Y320000D02*
D03*
X765000D02*
D03*
X775000D02*
D03*
X785000D02*
D03*
X795000D02*
D03*
X805000D02*
D03*
X815000D02*
D03*
X825000D02*
D03*
X755000Y330000D02*
D03*
X765000D02*
D03*
X775000D02*
D03*
X785000D02*
D03*
X795000D02*
D03*
X805000D02*
D03*
X815000D02*
D03*
X825000D02*
D03*
X755000Y340000D02*
D03*
X765000D02*
D03*
X775000D02*
D03*
X785000D02*
D03*
X795000D02*
D03*
X805000D02*
D03*
X815000D02*
D03*
X825000D02*
D03*
X755000Y350000D02*
D03*
X765000D02*
D03*
X775000D02*
D03*
X785000D02*
D03*
X795000D02*
D03*
X805000D02*
D03*
X815000D02*
D03*
X825000D02*
D03*
X755000Y360000D02*
D03*
X765000D02*
D03*
X775000D02*
D03*
X785000D02*
D03*
X795000D02*
D03*
X805000D02*
D03*
X815000D02*
D03*
X825000D02*
D03*
X755000Y370000D02*
D03*
X765000D02*
D03*
X775000D02*
D03*
X785000D02*
D03*
X795000D02*
D03*
X805000D02*
D03*
X815000D02*
D03*
X825000D02*
D03*
X755000Y380000D02*
D03*
X765000D02*
D03*
X775000D02*
D03*
X785000D02*
D03*
X795000D02*
D03*
X805000D02*
D03*
X815000D02*
D03*
X825000D02*
D03*
X745000Y400000D02*
D03*
X835000D02*
D03*
X745000Y410000D02*
D03*
X755000D02*
D03*
X825000D02*
D03*
X835000D02*
D03*
X570000Y715000D02*
D03*
Y725000D02*
D03*
Y795000D02*
D03*
Y805000D02*
D03*
X560000Y715000D02*
D03*
Y805000D02*
D03*
X540000Y725000D02*
D03*
Y735000D02*
D03*
Y745000D02*
D03*
Y755000D02*
D03*
Y765000D02*
D03*
Y775000D02*
D03*
Y785000D02*
D03*
Y795000D02*
D03*
X530000Y725000D02*
D03*
Y735000D02*
D03*
Y745000D02*
D03*
Y755000D02*
D03*
Y765000D02*
D03*
Y775000D02*
D03*
Y785000D02*
D03*
Y795000D02*
D03*
X520000Y725000D02*
D03*
Y735000D02*
D03*
Y745000D02*
D03*
Y755000D02*
D03*
Y765000D02*
D03*
Y775000D02*
D03*
Y785000D02*
D03*
Y795000D02*
D03*
X510000Y725000D02*
D03*
Y735000D02*
D03*
Y745000D02*
D03*
Y755000D02*
D03*
Y765000D02*
D03*
Y775000D02*
D03*
Y785000D02*
D03*
Y795000D02*
D03*
X500000Y725000D02*
D03*
Y735000D02*
D03*
Y745000D02*
D03*
Y755000D02*
D03*
Y765000D02*
D03*
Y775000D02*
D03*
Y785000D02*
D03*
Y795000D02*
D03*
X490000Y725000D02*
D03*
Y735000D02*
D03*
Y745000D02*
D03*
Y755000D02*
D03*
Y765000D02*
D03*
Y775000D02*
D03*
Y785000D02*
D03*
Y795000D02*
D03*
X480000Y725000D02*
D03*
Y735000D02*
D03*
Y745000D02*
D03*
Y755000D02*
D03*
Y765000D02*
D03*
Y775000D02*
D03*
Y785000D02*
D03*
Y795000D02*
D03*
X470000Y725000D02*
D03*
Y735000D02*
D03*
Y745000D02*
D03*
Y755000D02*
D03*
Y765000D02*
D03*
Y775000D02*
D03*
Y785000D02*
D03*
Y795000D02*
D03*
X460000Y725000D02*
D03*
Y735000D02*
D03*
Y745000D02*
D03*
Y755000D02*
D03*
Y765000D02*
D03*
Y775000D02*
D03*
Y785000D02*
D03*
Y795000D02*
D03*
X450000Y725000D02*
D03*
Y735000D02*
D03*
Y745000D02*
D03*
Y755000D02*
D03*
Y765000D02*
D03*
Y775000D02*
D03*
Y785000D02*
D03*
Y795000D02*
D03*
X440000Y725000D02*
D03*
Y735000D02*
D03*
Y745000D02*
D03*
Y755000D02*
D03*
Y765000D02*
D03*
Y775000D02*
D03*
Y785000D02*
D03*
Y795000D02*
D03*
X420000Y715000D02*
D03*
Y805000D02*
D03*
X410000Y715000D02*
D03*
Y725000D02*
D03*
Y795000D02*
D03*
Y805000D02*
D03*
D149*
X719512Y512500D02*
D03*
Y507500D02*
D03*
Y502500D02*
D03*
Y497500D02*
D03*
Y492500D02*
D03*
Y487500D02*
D03*
X680488D02*
D03*
Y492500D02*
D03*
Y497500D02*
D03*
Y502500D02*
D03*
Y507500D02*
D03*
Y512500D02*
D03*
X844512D02*
D03*
Y507500D02*
D03*
Y502500D02*
D03*
Y497500D02*
D03*
Y492500D02*
D03*
Y487500D02*
D03*
X805488D02*
D03*
Y492500D02*
D03*
Y497500D02*
D03*
Y502500D02*
D03*
Y507500D02*
D03*
Y512500D02*
D03*
D150*
X712500Y480488D02*
D03*
Y519512D02*
D03*
X707500Y480488D02*
D03*
Y519512D02*
D03*
X702500Y480488D02*
D03*
Y519512D02*
D03*
X697500Y480488D02*
D03*
Y519512D02*
D03*
X687500Y480488D02*
D03*
Y519512D02*
D03*
X692500Y480488D02*
D03*
Y519512D02*
D03*
X837500Y480488D02*
D03*
Y519512D02*
D03*
X832500Y480488D02*
D03*
Y519512D02*
D03*
X827500Y480488D02*
D03*
Y519512D02*
D03*
X822500Y480488D02*
D03*
Y519512D02*
D03*
X812500Y480488D02*
D03*
Y519512D02*
D03*
X817500Y480488D02*
D03*
Y519512D02*
D03*
D152*
X90000Y789500D02*
D03*
Y781500D02*
D03*
Y773500D02*
D03*
Y765500D02*
D03*
Y757500D02*
D03*
X112000D02*
D03*
Y765500D02*
D03*
Y773500D02*
D03*
Y781500D02*
D03*
Y789500D02*
D03*
D153*
X468500Y222450D02*
D03*
X459000D02*
D03*
X449500D02*
D03*
Y245550D02*
D03*
X459000D02*
D03*
X468500D02*
D03*
D154*
X382500Y373750D02*
D03*
X387500D02*
D03*
X392500D02*
D03*
X397500D02*
D03*
X402500D02*
D03*
X407500D02*
D03*
X412500D02*
D03*
X417500D02*
D03*
X422500D02*
D03*
X427500D02*
D03*
X432500D02*
D03*
X437500D02*
D03*
X442500D02*
D03*
X447500D02*
D03*
X452500D02*
D03*
X457500D02*
D03*
X462500D02*
D03*
X467500D02*
D03*
X472500D02*
D03*
X477500D02*
D03*
X482500D02*
D03*
X487500D02*
D03*
X492500D02*
D03*
X497500D02*
D03*
X502500D02*
D03*
X507500D02*
D03*
X512500D02*
D03*
X517500D02*
D03*
X522500D02*
D03*
X527500D02*
D03*
X532500D02*
D03*
X537500D02*
D03*
X542500D02*
D03*
X547500D02*
D03*
X552500D02*
D03*
X557500D02*
D03*
Y586250D02*
D03*
X552500D02*
D03*
X547500D02*
D03*
X542500D02*
D03*
X537500D02*
D03*
X532500D02*
D03*
X527500D02*
D03*
X522500D02*
D03*
X517500D02*
D03*
X512500D02*
D03*
X507500D02*
D03*
X502500D02*
D03*
X497500D02*
D03*
X492500D02*
D03*
X487500D02*
D03*
X482500D02*
D03*
X477500D02*
D03*
X472500D02*
D03*
X467500D02*
D03*
X462500D02*
D03*
X457500D02*
D03*
X452500D02*
D03*
X447500D02*
D03*
X442500D02*
D03*
X437500D02*
D03*
X432500D02*
D03*
X427500D02*
D03*
X422500D02*
D03*
X417500D02*
D03*
X412500D02*
D03*
X407500D02*
D03*
X402500D02*
D03*
X397500D02*
D03*
X392500D02*
D03*
X387500D02*
D03*
X382500D02*
D03*
D155*
X576250Y392500D02*
D03*
Y397500D02*
D03*
Y402500D02*
D03*
Y407500D02*
D03*
Y412500D02*
D03*
Y417500D02*
D03*
Y422500D02*
D03*
Y427500D02*
D03*
Y432500D02*
D03*
Y437500D02*
D03*
Y442500D02*
D03*
Y447500D02*
D03*
Y452500D02*
D03*
Y457500D02*
D03*
Y462500D02*
D03*
Y467500D02*
D03*
Y472500D02*
D03*
Y477500D02*
D03*
Y482500D02*
D03*
Y487500D02*
D03*
Y492500D02*
D03*
Y497500D02*
D03*
Y502500D02*
D03*
Y507500D02*
D03*
Y512500D02*
D03*
Y517500D02*
D03*
Y522500D02*
D03*
Y527500D02*
D03*
Y532500D02*
D03*
Y537500D02*
D03*
Y542500D02*
D03*
Y547500D02*
D03*
Y552500D02*
D03*
Y557500D02*
D03*
Y562500D02*
D03*
Y567500D02*
D03*
X363750D02*
D03*
Y562500D02*
D03*
Y557500D02*
D03*
Y552500D02*
D03*
Y547500D02*
D03*
Y542500D02*
D03*
Y537500D02*
D03*
Y532500D02*
D03*
Y527500D02*
D03*
Y522500D02*
D03*
Y517500D02*
D03*
Y512500D02*
D03*
Y507500D02*
D03*
Y502500D02*
D03*
Y497500D02*
D03*
Y492500D02*
D03*
Y487500D02*
D03*
Y482500D02*
D03*
Y477500D02*
D03*
Y472500D02*
D03*
Y467500D02*
D03*
Y462500D02*
D03*
Y457500D02*
D03*
Y452500D02*
D03*
Y447500D02*
D03*
Y442500D02*
D03*
Y437500D02*
D03*
Y432500D02*
D03*
Y427500D02*
D03*
Y422500D02*
D03*
Y417500D02*
D03*
Y412500D02*
D03*
Y407500D02*
D03*
Y402500D02*
D03*
Y397500D02*
D03*
Y392500D02*
D03*
D156*
X247204Y535500D02*
D03*
Y558500D02*
D03*
X265204D02*
D03*
Y535500D02*
D03*
D157*
X112750Y335000D02*
D03*
X129250D02*
D03*
X113000Y288000D02*
D03*
X129500D02*
D03*
X334046Y565000D02*
D03*
X317546D02*
D03*
X805250Y641000D02*
D03*
X788750D02*
D03*
D158*
X35500Y802750D02*
D03*
Y739250D02*
D03*
D159*
X64500Y777250D02*
D03*
Y764750D02*
D03*
D160*
X197000Y293000D02*
D03*
X206500Y313000D02*
D03*
X187500D02*
D03*
D187*
X700000Y500000D02*
D03*
X825000D02*
D03*
M02*
